# xmcd CD database file
#
# Track frame offsets:
#	150
#	13345
#	28497
#	43385
#	57850
#	71957
#	87460
#	101142
#	115455
#	127995
#	143370
#	157995
#	172547
#	184747
#	197012
#	212092
#	226792
#	239400
#
# Disc length: 3334 seconds
#
# Revision: 2
# Processed by: cddbd v1.5.2PL0 Copyright (c) Steve Scherf et al.
# Submitted via: Feurio! 1.68 - http://www.feurio.com
#
DISCID=000d0412
DTITLE=Tampa Red - Slide Guitar Wizard - CD1
DYEAR=1900
DGENRE=blues
TTITLE0=Please Mr Blues
TTITLE1=Turpentine Blues
TTITLE2=Western Bound Blues
TTITLE3=I'll Find My Way
TTITLE4=Kingfish Blues
TTITLE5=Black Angel Blues
TTITLE6=Grievin' And Worryin' Blues
TTITLE7=Somebody's Been Using That Thing
TTITLE8=Mean Mistreater Blues
TTITLE9=Christmas And New Year Blues
TTITLE10=Witchin' Hour Blues
TTITLE11=Stockyard Fire
TTITLE12=Mean Old Tom Cat Blues
TTITLE13=Shake It Up A Little
TTITLE14=So Good
TTITLE15=Waiting Blues
TTITLE16=I Wonder What's The Matter
TTITLE17=Travel On
EXTD=Chicago 1931-1946
EXTT0=1946
EXTT1=1932
EXTT2=1932
EXTT3=1934
EXTT4=1934
EXTT5=1934
EXTT6=1934
EXTT7=1934
EXTT8=1934
EXTT9=1934
EXTT10=1934
EXTT11=1934
EXTT12=1935
EXTT13=1935
EXTT14=1935
EXTT15=1935
EXTT16=1936
EXTT17=1937
PLAYORDER=
